<?xml version="1.0" standalone="no"?>
<!DOCTYPE svg PUBLIC "-//W3C//DTD SVG 20010904//EN"
 "http://www.w3.org/TR/2001/REC-SVG-20010904/DTD/svg10.dtd">
<svg version="1.0" xmlns="http://www.w3.org/2000/svg"
 width="260.000000pt" height="260.000000pt" viewBox="0 0 260.000000 260.000000"
 preserveAspectRatio="xMidYMid meet">
<metadata>
Created by potrace 1.14, written by Peter Selinger 2001-2017
</metadata>
<g transform="translate(0.000000,260.000000) scale(0.100000,-0.100000)"
fill="#000000" stroke="none">
<path d="M1359 2514 c-2 -90 0 -1157 3 -1159 3 -4 173 118 188 135 3 3 113 86
245 184 132 99 242 182 245 185 3 3 23 18 45 33 22 15 52 38 67 50 15 13 54
43 87 67 34 24 61 46 61 49 0 16 -121 145 -190 201 -14 11 -30 25 -37 31 -34
28 -157 102 -216 129 -133 61 -266 95 -419 107 -72 6 -78 5 -79 -12z"/>
<path d="M1049 2419 c-24 -4 -63 -9 -86 -12 -56 -8 -96 -18 -108 -28 -5 -4
-12 -7 -15 -7 -13 2 -121 -38 -175 -64 -226 -113 -428 -312 -538 -534 -30 -58
-103 -249 -96 -249 2 0 -8 -56 -17 -95 -3 -14 -7 -88 -9 -165 -4 -209 31 -368
122 -550 166 -334 472 -563 858 -640 17 -4 91 -8 165 -10 209 -6 386 32 567
124 79 39 214 131 257 174 l23 23 -79 85 c-93 98 -373 392 -503 528 -111 116
-129 134 -186 197 l-46 50 1 583 c1 321 -1 587 -5 592 -5 9 -55 8 -130 -2z"/>
<path d="M2335 1917 c-17 -12 -32 -24 -35 -27 -3 -3 -131 -100 -285 -215 -154
-115 -284 -213 -290 -217 -5 -5 -46 -35 -90 -69 -44 -33 -87 -65 -95 -72 -8
-7 -39 -29 -68 -51 l-52 -38 27 -31 c16 -18 44 -48 63 -68 19 -20 100 -105
180 -189 80 -84 163 -171 185 -195 22 -23 108 -113 190 -199 83 -87 154 -163
158 -170 5 -7 28 11 68 53 140 150 244 357 290 576 14 65 17 345 5 410 -11 59
-35 156 -48 190 -27 75 -35 94 -70 163 -21 40 -52 94 -71 121 l-32 49 -30 -21z"/>
</g>
</svg>
