<svg width="134" height="46" viewBox="0 0 134 46" fill="none" xmlns="http://www.w3.org/2000/svg">
    <g clip-path="url(#a)">
        <path fill="#fff" d="M0 0h133.47v45.03H0z"/>
        <path d="M18.37.78A31.84 31.84 0 0 1 0 .21v5.75a38.55 38.55 0 0 0 19.73.48C27.8 4.13 31.8 9.16 31.8 13.86a7.69 7.69 0 0 1-3.39 6.37c-.757.46-1.57.82-2.42 1.07-2.148.55-4.402.529-6.54-.06V8.51a20.31 20.31 0 0 1-6.72.89v35.58h6.72V27.19a22.52 22.52 0 0 0 5.42.3 13.8 13.8 0 0 0 12.74-13.55c0-8.37-6.2-16.51-19.24-13.16zM61.45 18.27v3a10.19 10.19 0 0 0-7.72-3 13.677 13.677 0 0 0-9.86 3.78 12.549 12.549 0 0 0-3.93 9.44 12.94 12.94 0 0 0 3.93 9.63 14 14 0 0 0 10 3.78 13.541 13.541 0 0 0 7.54-2.33v2.53h6.43V18.27h-6.39zm-7.74 21.1a7.75 7.75 0 1 1 7.74-7.75 7.742 7.742 0 0 1-7.74 7.75zM116.61 18.26h-4.18v-5.68h-6.49v5.68h-4.18v6.49h4.18v20.24h6.49V24.75h4.18v-6.49zM92.82 18.23a11.66 11.66 0 0 0-7.78 3v-3h-6.49v26.73h6.49V32.43a7.65 7.65 0 0 1 7.71-7.67h1v-6.49c-.34-.02-.65-.04-.93-.04zM132.49 18.26H126v26.73h6.49V18.26zM133.323 11.104a4.23 4.23 0 1 0-8.125-2.36 4.23 4.23 0 0 0 8.125 2.36z" fill="#3F3D56"/>
    </g>
    <defs>
        <clipPath id="a">
            <path fill="#fff" d="M0 0h133.47v45.03H0z"/>
        </clipPath>
    </defs>
</svg>
